<svg width="39" height="41" viewBox="0 0 39 41" fill="none" xmlns="http://www.w3.org/2000/svg">
<path fill-rule="evenodd" clip-rule="evenodd" d="M19.8119 3.16117C20.0728 2.95122 20.4566 2.99216 20.6664 3.25334C21.7716 4.63073 22.4981 6.27943 22.7745 8.02038C22.8316 8.3832 22.5416 8.72188 22.1707 8.72188C21.879 8.72188 21.6181 8.50683 21.5721 8.20982C21.3316 6.67881 20.6921 5.22466 19.7198 4.01118C19.5049 3.75 19.5509 3.37112 19.8119 3.16117ZM36.4565 15.8953L28.8174 23.5398L27.4 22.1164H27.3949L25.9776 20.6929L33.6168 13.0535L37.3059 12.1984L36.4565 15.8953ZM24.857 27.805C24.3424 28.3305 23.4804 28.3323 22.9536 27.805L19.1621 24.0108C18.78 23.6284 18.1234 23.8992 18.1234 24.441V27.7692L11.8811 27.7743C12.6537 26.017 12.9545 24.1244 12.7867 22.1675C12.7713 21.9832 12.669 21.8143 12.5104 21.7118C11.5178 21.0768 10.4381 20.6058 9.3125 20.3037C9.63287 19.5953 10.1433 18.8465 10.8781 18.8495L17.0131 18.9008C17.5913 18.9008 18.0671 19.1056 18.4713 19.5101L24.857 25.9002C25.384 26.4277 25.384 27.2828 24.857 27.805ZM24.1457 38.4194C24.354 38.5619 24.2582 38.8955 23.9973 38.8955H18.7374L18.763 37.1136H21.6181C22.0684 37.1136 22.4368 37.2263 22.8103 37.4874L24.1457 38.4194ZM14.8743 31.5735C14.644 31.3687 14.3012 31.3687 14.071 31.5735C12.6844 32.8024 11.4155 34.2156 10.2028 35.895H8.02818L9.62971 31.1025C10.2539 30.4624 10.7963 29.7558 11.2517 28.9929L18.6095 28.9877L20.9223 35.895H18.7477C17.535 34.2156 16.2661 32.8024 14.8743 31.5735ZM10.2079 38.8955H4.95301C4.69572 38.8955 4.58887 38.5647 4.80461 38.4194L6.14004 37.4875C6.50845 37.2264 6.87686 37.1137 7.33217 37.1137H10.1821L10.2128 38.8956L10.2079 38.8955ZM6.41644 32.0395C9.63481 30.2576 11.6202 26.9038 11.6202 23.2121C11.6202 23.0021 11.6151 22.7871 11.5997 22.5772C8.41532 20.6653 4.41756 20.6653 1.23322 22.5772C1.21792 22.7872 1.21282 23.0022 1.21282 23.2121C1.21272 26.9038 3.19797 30.2577 6.41644 32.0395ZM5.87913 9.61264C5.87913 5.8288 8.9543 2.74638 12.7406 2.74638C13.8509 2.74638 14.9305 3.01267 15.9079 3.51954L8.07418 9.99152C7.63779 10.3556 7.89768 11.0668 8.46309 11.0668H10.2641V16.0181C7.64957 15.0043 5.87913 12.4749 5.87913 9.61264ZM20.3697 1.41001L10.1516 9.85332H23.9359C23.941 9.77136 23.941 9.68949 23.941 9.61264C23.941 6.48928 22.6466 3.52464 20.3697 1.41001ZM18.2104 11.9117V11.0669H11.482V17.6361L14.4189 17.6618C16.7266 16.6684 18.2104 14.4257 18.2104 11.9117ZM38.5493 10.9593C38.4009 10.8108 38.186 10.7494 37.9814 10.7955L33.1716 11.9066C33.0642 11.9322 32.9618 11.9886 32.88 12.0704L24.6882 20.2628C24.4505 20.506 24.4504 20.885 24.6882 21.1231L26.1107 22.5465L24.6678 23.9904L19.331 18.65C18.6966 18.0151 17.9188 17.6925 17.0234 17.6823H16.7011C18.3998 16.2845 19.4231 14.1902 19.4231 11.9117V11.0669H24.5194C24.8366 11.0669 25.1027 10.8211 25.1231 10.5037C25.3852 6.53857 23.8165 2.71417 20.779 0.145389C20.5539 -0.044049 20.2264 -0.0491535 20.0012 0.140284L16.9108 2.69022C15.6521 1.93247 14.2194 1.53308 12.7407 1.53308C8.28918 1.53308 4.6665 5.15821 4.6665 9.61283C4.6665 13.1407 6.94345 16.2385 10.2641 17.3035V17.7131C9.37381 17.964 8.62169 18.7678 8.09468 20.0531C5.39376 19.6527 2.61939 20.2323 0.322403 21.7121C0.163799 21.8144 0.0614942 21.9835 0.0460975 22.1678C0.0153969 22.516 0 22.8642 0 23.2124C0 27.4673 2.35366 31.3229 6.14004 33.2686C6.31812 33.3563 6.51457 33.3567 6.69265 33.2686C7.09686 33.0587 7.48577 32.8283 7.85418 32.5774L6.72845 35.9465C6.26794 36.0285 5.84843 36.2076 5.44413 36.4892L4.1087 37.4211C2.93113 38.2455 3.51546 40.1093 4.95292 40.1093H10.2128C10.8917 40.1093 11.4356 39.5554 11.4255 38.8753L11.3999 37.0934C11.3948 36.8885 11.3436 36.694 11.2464 36.5251C12.2697 35.1171 13.3288 33.9086 14.475 32.8487C15.6161 33.9086 16.6803 35.117 17.7037 36.5251C17.6065 36.694 17.5502 36.8886 17.5502 37.0934L17.5246 38.8753C17.5145 39.5525 18.0544 40.1093 18.7372 40.1093H23.9972C25.4318 40.1093 26.0203 38.2465 24.8414 37.4211L23.5059 36.4892C23.1017 36.2076 22.677 36.0284 22.2216 35.9465L19.341 27.3291V25.9057L22.0937 28.6655C23.0946 29.6627 24.7197 29.6629 25.7163 28.6655C26.714 27.6671 26.714 26.0439 25.7163 25.0404L25.527 24.8509L26.9699 23.407L28.3873 24.8253C28.6254 25.0638 29.0086 25.0637 29.2469 24.8253L37.4387 16.6278C37.5155 16.5509 37.5769 16.4486 37.6024 16.3359L38.7076 11.5228C38.759 11.3229 38.6976 11.1078 38.5493 10.9593Z" fill="black"/>
<path fill-rule="evenodd" clip-rule="evenodd" d="M19.8119 3.16117C20.0728 2.95122 20.4566 2.99216 20.6664 3.25334C21.7716 4.63073 22.4981 6.27943 22.7745 8.02038C22.8316 8.3832 22.5416 8.72188 22.1707 8.72188C21.879 8.72188 21.6181 8.50683 21.5721 8.20982C21.3316 6.67881 20.6921 5.22466 19.7198 4.01118C19.5049 3.75 19.5509 3.37112 19.8119 3.16117ZM36.4565 15.8953L28.8174 23.5398L27.4 22.1164H27.3949L25.9776 20.6929L33.6168 13.0535L37.3059 12.1984L36.4565 15.8953ZM24.857 27.805C24.3424 28.3305 23.4804 28.3323 22.9536 27.805L19.1621 24.0108C18.78 23.6284 18.1234 23.8992 18.1234 24.441V27.7692L11.8811 27.7743C12.6537 26.017 12.9545 24.1244 12.7867 22.1675C12.7713 21.9832 12.669 21.8143 12.5104 21.7118C11.5178 21.0768 10.4381 20.6058 9.3125 20.3037C9.63287 19.5953 10.1433 18.8465 10.8781 18.8495L17.0131 18.9008C17.5913 18.9008 18.0671 19.1056 18.4713 19.5101L24.857 25.9002C25.384 26.4277 25.384 27.2828 24.857 27.805ZM24.1457 38.4194C24.354 38.5619 24.2582 38.8955 23.9973 38.8955H18.7374L18.763 37.1136H21.6181C22.0684 37.1136 22.4368 37.2263 22.8103 37.4874L24.1457 38.4194ZM14.8743 31.5735C14.644 31.3687 14.3012 31.3687 14.071 31.5735C12.6844 32.8024 11.4155 34.2156 10.2028 35.895H8.02818L9.62971 31.1025C10.2539 30.4624 10.7963 29.7558 11.2517 28.9929L18.6095 28.9877L20.9223 35.895H18.7477C17.535 34.2156 16.2661 32.8024 14.8743 31.5735ZM10.2079 38.8955H4.95301C4.69572 38.8955 4.58887 38.5647 4.80461 38.4194L6.14004 37.4875C6.50845 37.2264 6.87686 37.1137 7.33217 37.1137H10.1821L10.2128 38.8956L10.2079 38.8955ZM6.41644 32.0395C9.63481 30.2576 11.6202 26.9038 11.6202 23.2121C11.6202 23.0021 11.6151 22.7871 11.5997 22.5772C8.41532 20.6653 4.41756 20.6653 1.23322 22.5772C1.21792 22.7872 1.21282 23.0022 1.21282 23.2121C1.21272 26.9038 3.19797 30.2577 6.41644 32.0395ZM5.87913 9.61264C5.87913 5.8288 8.9543 2.74638 12.7406 2.74638C13.8509 2.74638 14.9305 3.01267 15.9079 3.51954L8.07418 9.99152C7.63779 10.3556 7.89768 11.0668 8.46309 11.0668H10.2641V16.0181C7.64957 15.0043 5.87913 12.4749 5.87913 9.61264ZM20.3697 1.41001L10.1516 9.85332H23.9359C23.941 9.77136 23.941 9.68949 23.941 9.61264C23.941 6.48928 22.6466 3.52464 20.3697 1.41001ZM18.2104 11.9117V11.0669H11.482V17.6361L14.4189 17.6618C16.7266 16.6684 18.2104 14.4257 18.2104 11.9117ZM38.5493 10.9593C38.4009 10.8108 38.186 10.7494 37.9814 10.7955L33.1716 11.9066C33.0642 11.9322 32.9618 11.9886 32.88 12.0704L24.6882 20.2628C24.4505 20.506 24.4504 20.885 24.6882 21.1231L26.1107 22.5465L24.6678 23.9904L19.331 18.65C18.6966 18.0151 17.9188 17.6925 17.0234 17.6823H16.7011C18.3998 16.2845 19.4231 14.1902 19.4231 11.9117V11.0669H24.5194C24.8366 11.0669 25.1027 10.8211 25.1231 10.5037C25.3852 6.53857 23.8165 2.71417 20.779 0.145389C20.5539 -0.044049 20.2264 -0.0491535 20.0012 0.140284L16.9108 2.69022C15.6521 1.93247 14.2194 1.53308 12.7407 1.53308C8.28918 1.53308 4.6665 5.15821 4.6665 9.61283C4.6665 13.1407 6.94345 16.2385 10.2641 17.3035V17.7131C9.37381 17.964 8.62169 18.7678 8.09468 20.0531C5.39376 19.6527 2.61939 20.2323 0.322403 21.7121C0.163799 21.8144 0.0614942 21.9835 0.0460975 22.1678C0.0153969 22.516 0 22.8642 0 23.2124C0 27.4673 2.35366 31.3229 6.14004 33.2686C6.31812 33.3563 6.51457 33.3567 6.69265 33.2686C7.09686 33.0587 7.48577 32.8283 7.85418 32.5774L6.72845 35.9465C6.26794 36.0285 5.84843 36.2076 5.44413 36.4892L4.1087 37.4211C2.93113 38.2455 3.51546 40.1093 4.95292 40.1093H10.2128C10.8917 40.1093 11.4356 39.5554 11.4255 38.8753L11.3999 37.0934C11.3948 36.8885 11.3436 36.694 11.2464 36.5251C12.2697 35.1171 13.3288 33.9086 14.475 32.8487C15.6161 33.9086 16.6803 35.117 17.7037 36.5251C17.6065 36.694 17.5502 36.8886 17.5502 37.0934L17.5246 38.8753C17.5145 39.5525 18.0544 40.1093 18.7372 40.1093H23.9972C25.4318 40.1093 26.0203 38.2465 24.8414 37.4211L23.5059 36.4892C23.1017 36.2076 22.677 36.0284 22.2216 35.9465L19.341 27.3291V25.9057L22.0937 28.6655C23.0946 29.6627 24.7197 29.6629 25.7163 28.6655C26.714 27.6671 26.714 26.0439 25.7163 25.0404L25.527 24.8509L26.9699 23.407L28.3873 24.8253C28.6254 25.0638 29.0086 25.0637 29.2469 24.8253L37.4387 16.6278C37.5155 16.5509 37.5769 16.4486 37.6024 16.3359L38.7076 11.5228C38.759 11.3229 38.6976 11.1078 38.5493 10.9593Z" fill="url(#paint0_linear_98_11751)"/>
<defs>
<linearGradient id="paint0_linear_98_11751" x1="33.2537" y1="-9.12653" x2="-7.01613" y2="60.9006" gradientUnits="userSpaceOnUse">
<stop stop-color="#FF003D"/>
<stop offset="0.695" stop-color="#FF00D6"/>
</linearGradient>
</defs>
</svg>
