<svg width="32" height="32" viewBox="0 0 32 32" fill="none" xmlns="http://www.w3.org/2000/svg">
<path d="M4.5786 0.00915527H0.915684C0.409997 0.00915527 0 0.419152 0 0.9249V4.64888C0 5.15463 0.409936 5.56463 0.915745 5.56463C1.42149 5.56463 1.83149 5.15463 1.83149 4.64888V1.84064H4.57866C5.08441 1.84064 5.49441 1.43065 5.49441 0.9249C5.49435 0.419152 5.08435 0.00915527 4.5786 0.00915527Z" fill="black"/>
<path d="M4.5786 0.00915527H0.915684C0.409997 0.00915527 0 0.419152 0 0.9249V4.64888C0 5.15463 0.409936 5.56463 0.915745 5.56463C1.42149 5.56463 1.83149 5.15463 1.83149 4.64888V1.84064H4.57866C5.08441 1.84064 5.49441 1.43065 5.49441 0.9249C5.49435 0.419152 5.08435 0.00915527 4.5786 0.00915527Z" fill="url(#paint0_linear_98_11735)"/>
<path d="M30.3414 0.00915527H26.6784C26.1727 0.00915527 25.7627 0.419152 25.7627 0.9249C25.7627 1.43065 26.1726 1.84064 26.6784 1.84064H29.4256V4.64888C29.4256 5.15463 29.8356 5.56463 30.3414 5.56463C30.8471 5.56463 31.2571 5.15463 31.2571 4.64888V0.9249C31.2571 0.419152 30.8471 0.00915527 30.3414 0.00915527Z" fill="black"/>
<path d="M30.3414 0.00915527H26.6784C26.1727 0.00915527 25.7627 0.419152 25.7627 0.9249C25.7627 1.43065 26.1726 1.84064 26.6784 1.84064H29.4256V4.64888C29.4256 5.15463 29.8356 5.56463 30.3414 5.56463C30.8471 5.56463 31.2571 5.15463 31.2571 4.64888V0.9249C31.2571 0.419152 30.8471 0.00915527 30.3414 0.00915527Z" fill="url(#paint1_linear_98_11735)"/>
<path d="M4.57866 29.4346H1.83149V26.6263C1.83149 26.1206 1.42149 25.7106 0.915745 25.7106C0.409997 25.7106 0 26.1206 0 26.6263V30.3503C0 30.856 0.409936 31.266 0.915745 31.266H4.57866C5.08441 31.266 5.49441 30.856 5.49441 30.3503C5.49441 29.8446 5.08441 29.4346 4.57866 29.4346Z" fill="black"/>
<path d="M4.57866 29.4346H1.83149V26.6263C1.83149 26.1206 1.42149 25.7106 0.915745 25.7106C0.409997 25.7106 0 26.1206 0 26.6263V30.3503C0 30.856 0.409936 31.266 0.915745 31.266H4.57866C5.08441 31.266 5.49441 30.856 5.49441 30.3503C5.49441 29.8446 5.08441 29.4346 4.57866 29.4346Z" fill="url(#paint2_linear_98_11735)"/>
<path d="M30.3414 25.7106C29.8356 25.7106 29.4256 26.1206 29.4256 26.6263V29.4346H26.6784C26.1727 29.4346 25.7627 29.8446 25.7627 30.3503C25.7627 30.856 26.1727 31.266 26.6784 31.266H30.3414C30.8471 31.266 31.2571 30.856 31.2571 30.3503V26.6263C31.2571 26.1206 30.8471 25.7106 30.3414 25.7106Z" fill="black"/>
<path d="M30.3414 25.7106C29.8356 25.7106 29.4256 26.1206 29.4256 26.6263V29.4346H26.6784C26.1727 29.4346 25.7627 29.8446 25.7627 30.3503C25.7627 30.856 26.1727 31.266 26.6784 31.266H30.3414C30.8471 31.266 31.2571 30.856 31.2571 30.3503V26.6263C31.2571 26.1206 30.8471 25.7106 30.3414 25.7106Z" fill="url(#paint3_linear_98_11735)"/>
<path d="M28.8419 7.52164L16.0881 0.132539C15.8042 -0.0319726 15.4538 -0.0319726 15.1699 0.132539L2.41094 7.52158C2.12967 7.68456 1.9541 7.988 1.9541 8.31336C1.9541 8.31519 1.95428 8.31702 1.95428 8.31879V22.97C1.95428 23.2985 2.13278 23.6059 2.42022 23.7677L15.17 31.1515C15.3073 31.2311 15.4707 31.2749 15.6291 31.2749C15.7944 31.2749 15.9559 31.2281 16.0882 31.1515L28.8328 23.7676C28.8349 23.7664 28.837 23.7652 28.8391 23.764C29.1345 23.5508 29.2937 23.3717 29.2981 22.981C29.2982 22.9774 29.2985 22.9738 29.2985 22.9701V8.31892C29.2985 8.31708 29.2987 8.31525 29.2987 8.31348C29.2987 7.98782 29.123 7.68432 28.8419 7.52164ZM14.7133 28.7703L4.70909 22.9741L12.4217 18.5512C12.8604 18.2996 13.0121 17.74 12.7605 17.3013C12.5089 16.8625 11.9493 16.7109 11.5106 16.9625L3.78559 21.3893V9.89625L14.7133 16.172V28.7703ZM15.629 14.5859L4.70775 8.31073L15.629 1.9832L26.5503 8.31073L15.629 14.5859ZM27.473 21.3893L19.7475 16.9624C19.3088 16.7109 18.7492 16.8625 18.4976 17.3012C18.2459 17.74 18.3976 18.2995 18.8364 18.5511L26.549 22.974L16.5447 28.7702V16.172L27.4729 9.89625V21.3893H27.473Z" fill="black"/>
<path d="M28.8419 7.52164L16.0881 0.132539C15.8042 -0.0319726 15.4538 -0.0319726 15.1699 0.132539L2.41094 7.52158C2.12967 7.68456 1.9541 7.988 1.9541 8.31336C1.9541 8.31519 1.95428 8.31702 1.95428 8.31879V22.97C1.95428 23.2985 2.13278 23.6059 2.42022 23.7677L15.17 31.1515C15.3073 31.2311 15.4707 31.2749 15.6291 31.2749C15.7944 31.2749 15.9559 31.2281 16.0882 31.1515L28.8328 23.7676C28.8349 23.7664 28.837 23.7652 28.8391 23.764C29.1345 23.5508 29.2937 23.3717 29.2981 22.981C29.2982 22.9774 29.2985 22.9738 29.2985 22.9701V8.31892C29.2985 8.31708 29.2987 8.31525 29.2987 8.31348C29.2987 7.98782 29.123 7.68432 28.8419 7.52164ZM14.7133 28.7703L4.70909 22.9741L12.4217 18.5512C12.8604 18.2996 13.0121 17.74 12.7605 17.3013C12.5089 16.8625 11.9493 16.7109 11.5106 16.9625L3.78559 21.3893V9.89625L14.7133 16.172V28.7703ZM15.629 14.5859L4.70775 8.31073L15.629 1.9832L26.5503 8.31073L15.629 14.5859ZM27.473 21.3893L19.7475 16.9624C19.3088 16.7109 18.7492 16.8625 18.4976 17.3012C18.2459 17.74 18.3976 18.2995 18.8364 18.5511L26.549 22.974L16.5447 28.7702V16.172L27.4729 9.89625V21.3893H27.473Z" fill="url(#paint4_linear_98_11735)"/>
<defs>
<linearGradient id="paint0_linear_98_11735" x1="4.71807" y1="-1.25507" x2="-0.791535" y2="8.55894" gradientUnits="userSpaceOnUse">
<stop stop-color="#FF003D"/>
<stop offset="0.33" stop-color="#FF00D6"/>
</linearGradient>
<linearGradient id="paint1_linear_98_11735" x1="30.4808" y1="-1.25507" x2="24.9712" y2="8.55894" gradientUnits="userSpaceOnUse">
<stop stop-color="#FF003D"/>
<stop offset="0.33" stop-color="#FF00D6"/>
</linearGradient>
<linearGradient id="paint2_linear_98_11735" x1="4.71807" y1="24.4463" x2="-0.791533" y2="34.2604" gradientUnits="userSpaceOnUse">
<stop stop-color="#FF003D"/>
<stop offset="0.33" stop-color="#FF00D6"/>
</linearGradient>
<linearGradient id="paint3_linear_98_11735" x1="30.4808" y1="24.4463" x2="24.9712" y2="34.2604" gradientUnits="userSpaceOnUse">
<stop stop-color="#FF003D"/>
<stop offset="0.33" stop-color="#FF00D6"/>
</linearGradient>
<linearGradient id="paint4_linear_98_11735" x1="25.435" y1="-7.1058" x2="-7.43344" y2="44.6678" gradientUnits="userSpaceOnUse">
<stop stop-color="#FF003D"/>
<stop offset="0.33" stop-color="#FF00D6"/>
</linearGradient>
</defs>
</svg>
