<svg width="41" height="41" viewBox="0 0 41 41" fill="none" xmlns="http://www.w3.org/2000/svg">
<path d="M24.2884 13.6535H20.7789V26.4644H36.5795V13.6535H24.2845H24.2884ZM4.41037 33.3632C4.21845 33.3632 4.0461 33.4376 3.92077 33.5629C3.79934 33.6881 3.72101 33.8604 3.72101 34.0523C3.72101 34.2441 3.79543 34.4164 3.92468 34.5417C4.05002 34.667 4.22236 34.7453 4.41429 34.7453C4.60621 34.7453 4.77856 34.6709 4.90389 34.5456C5.02532 34.4203 5.10365 34.248 5.10365 34.0562C5.10365 33.8643 5.02923 33.6921 4.89998 33.5668C4.77072 33.4415 4.6023 33.3632 4.41037 33.3632ZM2.82405 32.4705C3.05123 32.2434 3.3254 32.0633 3.63092 31.9497V29.4322C3.63092 29.0015 3.97952 28.653 4.41037 28.653C4.84123 28.653 5.18982 29.0015 5.18982 29.4322V31.9497C5.49534 32.0633 5.77344 32.2434 6.00061 32.4666C6.40796 32.8738 6.65864 33.4336 6.65864 34.0523C6.65864 34.6709 6.40796 35.2269 6.00061 35.6341C5.77344 35.8611 5.49926 36.0412 5.19374 36.1548V37.1415C5.19374 37.5721 4.84514 37.9206 4.41429 37.9206C3.98344 37.9206 3.63484 37.5721 3.63484 37.1415V36.1548C3.32932 36.0412 3.05123 35.8611 2.82405 35.638C2.4167 35.2308 2.16602 34.6709 2.16602 34.0523C2.16602 33.4336 2.4167 32.8777 2.82013 32.4705H2.82405ZM9.40827 31.7892C9.21635 31.7892 9.044 31.8636 8.91866 31.9889C8.79724 32.1142 8.71891 32.2865 8.71891 32.4783C8.71891 32.6702 8.79333 32.8424 8.92258 32.9677C9.05184 33.093 9.22026 33.1713 9.41219 33.1713C9.60411 33.1713 9.77645 33.0969 9.90179 32.9716C10.0232 32.8463 10.1016 32.6741 10.1016 32.4822C10.1016 32.2904 10.0271 32.1181 9.89788 31.9928C9.76862 31.8675 9.6002 31.7892 9.40827 31.7892ZM7.82195 30.8926C8.04912 30.6655 8.3233 30.4854 8.62882 30.3719V29.4283C8.62882 28.9976 8.97742 28.6491 9.40827 28.6491C9.83912 28.6491 10.1877 28.9976 10.1877 29.4283V30.3719C10.4932 30.4854 10.7713 30.6655 10.9985 30.8887C11.4059 31.2959 11.6565 31.8558 11.6565 32.4744C11.6565 33.093 11.4059 33.649 10.9985 34.0562C10.7713 34.2833 10.4972 34.4634 10.1916 34.5769V37.1415C10.1916 37.5721 9.84304 37.9206 9.41219 37.9206C8.98133 37.9206 8.63274 37.5721 8.63274 37.1415V34.5769C8.32722 34.4634 8.04912 34.2833 7.82195 34.0601C7.41459 33.6529 7.16392 33.093 7.16392 32.4744C7.16392 31.8558 7.41459 31.2998 7.81803 30.8926H7.82195ZM14.414 33.3593C14.2221 33.3593 14.0497 33.4336 13.9244 33.5589C13.803 33.6842 13.7246 33.8565 13.7246 34.0484C13.7246 34.2402 13.7991 34.4125 13.9283 34.5378C14.0576 34.6631 14.226 34.7414 14.4179 34.7414C14.6098 34.7414 14.7822 34.667 14.9075 34.5417C15.0289 34.4164 15.1073 34.2441 15.1073 34.0523C15.1073 33.8604 15.0329 33.6881 14.9036 33.5629C14.7744 33.4376 14.6059 33.3593 14.414 33.3593ZM12.8277 32.4626C13.0549 32.2356 13.329 32.0555 13.6346 31.9419V29.4283C13.6346 28.9976 13.9832 28.6491 14.414 28.6491C14.8449 28.6491 15.1935 28.9976 15.1935 29.4283V31.9419C15.499 32.0555 15.7771 32.2356 16.0042 32.4587C16.4116 32.8659 16.6623 33.4258 16.6623 34.0444C16.6623 34.6631 16.4116 35.219 16.0042 35.6262C15.7771 35.8533 15.5029 36.0334 15.1974 36.147V37.1415C15.1974 37.5721 14.8488 37.9206 14.4179 37.9206C13.9871 37.9206 13.6385 37.5721 13.6385 37.1415V36.1509C13.333 36.0373 13.0549 35.8572 12.8277 35.6341C12.4203 35.2269 12.1696 34.667 12.1696 34.0484C12.1696 33.4297 12.4203 32.8738 12.8238 32.4666L12.8277 32.4626ZM33.4695 10.0944C33.6849 10.0944 33.8768 10.0083 34.0178 9.86734C34.1549 9.72639 34.245 9.53845 34.245 9.31919C34.245 9.09993 34.1588 8.912 34.0178 8.77496C33.8768 8.63401 33.6888 8.54787 33.4734 8.54787C33.258 8.54787 33.066 8.63401 32.9289 8.77105C32.7919 8.912 32.7057 9.10385 32.7057 9.31919C32.7057 9.53454 32.7919 9.72639 32.9329 9.86342C33.0739 10.0044 33.2619 10.0905 33.4773 10.0905L33.4695 10.0944ZM35.1106 10.9675C34.6876 11.3904 34.1118 11.6488 33.4695 11.6488C32.8271 11.6488 32.2474 11.3904 31.8244 10.9675C31.4014 10.5447 31.1429 9.96914 31.1429 9.32311C31.1429 8.75147 31.3505 8.23073 31.6951 7.82354L31.3935 7.67867L26.5876 9.95739C26.1998 10.1375 25.7376 9.97305 25.5535 9.58543C25.3733 9.19782 25.5379 8.73581 25.9256 8.55179L29.584 6.8173L25.859 5.05541C25.4713 4.87531 25.3068 4.4133 25.4869 4.02177C25.6671 3.63415 26.1293 3.46971 26.521 3.64981L31.3935 5.95985L31.7578 5.78757C31.4131 5.38038 31.2095 4.85573 31.2095 4.28409C31.2095 3.64198 31.468 3.06643 31.891 2.64357C32.314 2.22072 32.8898 1.95839 33.5321 1.95839C34.1745 1.95839 34.7542 2.2168 35.1772 2.63966C35.6002 3.06251 35.8588 3.63806 35.8588 4.28409C35.8588 4.93012 35.6002 5.50176 35.1772 5.92461H35.1733C34.7777 6.32397 34.245 6.57455 33.6575 6.60588L33.211 6.82122L33.5987 7.00132C34.1941 7.03265 34.7268 7.28323 35.1185 7.67867C35.5415 8.10153 35.8 8.67708 35.8 9.32311C35.8 9.96914 35.5415 10.5408 35.1185 10.9636L35.1106 10.9675ZM34.0766 3.74769C33.9356 3.60674 33.7476 3.5206 33.5321 3.5206C33.3167 3.5206 33.1248 3.60674 32.9838 3.74769C32.8467 3.88864 32.7566 4.07658 32.7566 4.29584C32.7566 4.5151 32.8428 4.70303 32.9838 4.84007C33.1248 4.98102 33.3128 5.06716 33.5282 5.06716C33.7437 5.06716 33.9356 4.98102 34.0727 4.84398C34.2098 4.70303 34.2959 4.51118 34.2959 4.29584C34.2959 4.0805 34.2098 3.88864 34.0688 3.75161L34.0766 3.74769ZM9.70203 22.4864L13.0862 20.427C13.3134 20.2899 13.4465 20.1685 13.5092 20.0628C13.5249 20.0354 13.5327 20.0237 13.5327 20.0198L13.517 19.9924C13.47 19.918 13.38 19.8357 13.2585 19.7653L9.66678 17.5766C9.55711 17.514 9.47486 17.4905 9.41611 17.4905C9.40044 17.5061 9.38477 17.5296 9.36519 17.557C9.27901 17.7019 9.24376 17.9016 9.24376 18.0543V22.0244C9.24376 22.2045 9.2751 22.3494 9.33777 22.4512C9.36519 22.4942 9.38869 22.5256 9.41611 22.5412C9.43177 22.5491 9.45136 22.5569 9.47486 22.5569C9.53753 22.5569 9.61195 22.5334 9.70203 22.4825V22.4864ZM13.8931 21.7542L10.5089 23.8137L10.4932 23.8255C10.1407 24.029 9.79604 24.1191 9.47486 24.1191C9.15368 24.1191 8.856 24.033 8.59748 23.8685C8.35072 23.7158 8.14705 23.5005 7.99429 23.2382C7.79845 22.9014 7.68877 22.4864 7.68877 22.0322V18.0621C7.68877 17.7019 7.7867 17.2007 8.02171 16.7975C8.15096 16.5704 8.3233 16.3707 8.54265 16.218C8.78941 16.0496 9.07926 15.9478 9.41611 15.9478C9.7177 15.9478 10.0546 16.034 10.4267 16.2415C10.4502 16.2532 10.4697 16.265 10.4893 16.2767L14.0654 18.4536C14.3944 18.6533 14.6608 18.9078 14.8409 19.1975C14.9937 19.4442 15.0799 19.7222 15.0799 20.0119C15.0799 20.3017 15.0054 20.5953 14.8331 20.8811C14.6451 21.1904 14.3396 21.488 13.8891 21.7621L13.8931 21.7542ZM9.42002 17.4865C9.42002 17.4865 9.43177 17.4787 9.42394 17.4826H9.42002V17.4865ZM26.9793 22.4864L30.3634 20.427C30.5906 20.2899 30.7238 20.1685 30.7864 20.0628C30.8021 20.0354 30.8099 20.0237 30.8099 20.0198L30.7943 19.9924C30.7473 19.918 30.6572 19.8357 30.5358 19.7653L26.944 17.5766C26.8343 17.514 26.7521 17.4905 26.6933 17.4905C26.6777 17.5061 26.662 17.5296 26.6424 17.557C26.5562 17.7019 26.521 17.9016 26.521 18.0543V22.0244C26.521 22.2045 26.5523 22.3494 26.615 22.4512C26.6424 22.4942 26.6659 22.5256 26.6933 22.5412C26.709 22.5491 26.7286 22.5569 26.7521 22.5569C26.8147 22.5569 26.8892 22.5334 26.9793 22.4825V22.4864ZM31.1703 21.7542L27.7861 23.8137L27.7705 23.8255C27.4179 24.029 27.0733 24.1191 26.7521 24.1191C26.4309 24.1191 26.1332 24.033 25.8747 23.8685C25.6279 23.7158 25.4243 23.5005 25.2715 23.2382C25.0757 22.9014 24.966 22.4864 24.966 22.0322V18.0621C24.966 17.7019 25.0639 17.2007 25.2989 16.7975C25.4282 16.5704 25.6005 16.3707 25.8199 16.218C26.0666 16.0496 26.3565 15.9478 26.6933 15.9478C26.9949 15.9478 27.3318 16.034 27.7039 16.2415C27.7274 16.2532 27.747 16.265 27.7665 16.2767L31.3426 18.4536C31.6716 18.6533 31.938 18.9078 32.1182 19.1975C32.2709 19.4442 32.3571 19.7222 32.3571 20.0119C32.3571 20.3017 32.2827 20.5953 32.1103 20.8811C31.9223 21.1904 31.6168 21.488 31.1664 21.7621L31.1703 21.7542ZM26.6933 17.4865C26.6933 17.4865 26.7051 17.4787 26.6972 17.4826H26.6933V17.4865ZM33.1679 28.0148V30.7673H36.5834V28.0148H33.1679ZM31.6129 30.7673V28.0148H28.1621V30.7673H31.6129ZM26.6072 30.7673V28.0148H23.2935V30.7673H26.6072ZM21.7385 30.7673V28.0148H18.6951C18.8126 28.3007 18.8753 28.6139 18.8753 28.9428V30.7673H21.7385ZM18.3622 9.28787V12.0952H21.4291C21.3155 11.8133 21.2489 11.5 21.2489 11.1751V9.28787H18.3622ZM16.8072 12.0952V9.28787H13.4622V12.0952H16.8072ZM11.9111 12.0952V9.28787H8.46039V12.0952H11.9111ZM6.90149 12.0952V9.28787H3.43116V12.0952H6.90149ZM19.2317 13.6495H3.42724V26.4605H19.2278V13.6495H19.2317ZM1.87617 26.5349V8.51264C1.87617 8.08195 2.22477 7.73349 2.65562 7.73349H21.2528V2.47521C21.2528 1.79395 21.5309 1.17533 21.9774 0.725067C22.424 0.27872 23.0467 0.000732422 23.7244 0.000732422H37.6331C38.2872 0.000732422 38.8865 0.259144 39.3291 0.681998L39.38 0.728982C39.8265 1.17533 40.1046 1.79786 40.1046 2.47913V11.179C40.1046 11.8602 39.8265 12.4789 39.38 12.9291C39.0471 13.2619 38.6201 13.5008 38.1423 13.6026V31.5465C38.1423 31.9771 37.7937 32.3256 37.3628 32.3256H18.8753V37.6309C18.8753 38.3082 18.5972 38.9308 18.1468 39.381H18.1428C17.6924 39.8352 17.0735 40.1132 16.3959 40.1132H2.47937C1.79783 40.1132 1.17897 39.8352 0.728534 39.3849C0.278096 38.9347 0 38.316 0 37.6348V28.9467C0 28.2654 0.278096 27.6468 0.728534 27.1965C1.03796 26.8833 1.43357 26.6523 1.87225 26.5427L1.87617 26.5349ZM16.392 28.0148H2.47937C2.22477 28.0148 1.98976 28.1166 1.82525 28.285C1.65683 28.4534 1.55499 28.6844 1.55499 28.9389V37.627C1.55499 37.8814 1.66074 38.1124 1.82525 38.2808C1.99368 38.4492 2.22477 38.551 2.47937 38.551H16.392C16.6466 38.551 16.8816 38.4492 17.0461 38.2808C17.2146 38.1124 17.3164 37.8814 17.3164 37.627V28.9389C17.3164 28.6844 17.2106 28.4534 17.0461 28.285C16.8816 28.1166 16.6466 28.0148 16.392 28.0148ZM23.7244 12.0952H37.637C37.8916 12.0952 38.1227 11.9934 38.2911 11.825C38.4595 11.6566 38.5614 11.4256 38.5614 11.1751V2.47521C38.5614 2.22463 38.4556 1.99363 38.2911 1.82527L38.2637 1.79786C38.0992 1.64908 37.8798 1.55903 37.6448 1.55903H23.7361C23.4815 1.55903 23.2543 1.66083 23.082 1.82919C22.9136 1.99755 22.8117 2.22855 22.8117 2.47913V11.179C22.8117 11.4295 22.9175 11.6606 23.082 11.8289L23.1094 11.8563C23.2739 12.0051 23.4933 12.0952 23.7283 12.0952H23.7244Z" fill="url(#paint0_linear_98_11723)"/>
<defs>
<linearGradient id="paint0_linear_98_11723" x1="34.438" y1="-9.12742" x2="-5.1173" y2="62.0998" gradientUnits="userSpaceOnUse">
<stop stop-color="#FF003D"/>
<stop offset="0.605" stop-color="#FF00D6"/>
</linearGradient>
</defs>
</svg>
