<svg width="41" height="41" viewBox="0 0 41 41" fill="none" xmlns="http://www.w3.org/2000/svg">
<path d="M37.5926 6.49437L39.8612 4.22891C40.3296 3.76047 40.587 3.13946 40.587 2.47707C40.587 1.11186 39.4764 0.000610352 38.11 0.000610352C37.4488 0.000610352 36.8272 0.258048 36.3587 0.725859L30.6155 6.46973H3.71307C1.92964 6.46973 0.478516 7.92086 0.478516 9.70429V33.64C0.478516 35.0671 1.63904 36.2277 3.06616 36.2277H11.476V38.8153H8.88837V40.1091H32.1772V38.8153H29.5895V36.2277H37.9994C39.4265 36.2277 40.587 35.0671 40.587 33.64V9.70429C40.587 8.00299 39.2623 6.61914 37.5926 6.49437ZM37.2735 1.64063C37.4975 1.41731 37.7944 1.29443 38.11 1.29443C38.7629 1.29443 39.2932 1.82479 39.2932 2.47707C39.2932 2.78821 39.1672 3.09271 38.9464 3.31351L25.0612 17.1994L23.3883 15.5265L37.2735 1.64063ZM36.7056 31.0524H4.35999V10.3512H26.734L22.0161 15.0691L20.7697 16.9227L19.7715 17.255C19.5444 17.3308 19.3277 17.4328 19.118 17.5487C18.6568 16.8592 18.0222 16.3184 17.2884 15.9709C17.1804 13.5684 15.1983 11.645 12.7698 11.645C10.3433 11.645 8.36244 13.5649 8.25188 15.9643C6.71926 16.6908 5.65381 18.2493 5.65381 20.0549C5.65381 22.5512 7.6852 24.5833 10.1822 24.5833C11.144 24.5833 12.0357 24.2791 12.7698 23.7655C13.5039 24.2791 14.3956 24.5833 15.3575 24.5833C16.2309 24.5833 17.0736 24.3309 17.8033 23.8612L20.2463 23.4537C21.06 23.3185 21.7982 22.9382 22.3822 22.3548C22.8118 21.9245 23.1403 21.3932 23.3327 20.8177L23.6637 19.8233L25.4197 18.6524L33.731 10.3512H36.7056V31.0524ZM17.134 20.3407L16.6908 22.9988C16.2742 23.1887 15.8218 23.2894 15.3575 23.2894C14.7674 23.2894 14.221 23.1185 13.744 22.8418C14.3069 22.1239 14.6556 21.2334 14.7002 20.264C15.8834 19.703 16.7846 18.6467 17.1346 17.3624C17.5209 17.6173 17.8538 17.9524 18.1043 18.3561C17.5977 18.9149 17.2581 19.5937 17.134 20.3407ZM8.40382 17.3579C8.75317 18.6445 9.655 19.7024 10.8395 20.264C10.8841 21.2334 11.2328 22.1239 11.7957 22.8418C11.3187 23.1185 10.7722 23.2894 10.1822 23.2894C8.39876 23.2894 6.94763 21.8383 6.94763 20.0549C6.94763 18.9285 7.5279 17.9369 8.40382 17.3579ZM14.5482 18.8703C14.3878 18.2797 14.1123 17.737 13.744 17.2679C14.221 16.9912 14.7674 16.8203 15.3575 16.8203C15.5489 16.8203 15.7372 16.8437 15.9223 16.8765C15.7372 17.706 15.2359 18.4155 14.5482 18.8703ZM12.7698 18.134C13.0364 18.4919 13.2342 18.9013 13.3346 19.3511C13.1502 19.3833 12.9632 19.408 12.7698 19.408C12.5765 19.408 12.3895 19.3833 12.2051 19.3511C12.3055 18.9013 12.5032 18.4919 12.7698 18.134ZM15.3575 15.5265C14.3956 15.5265 13.5039 15.8307 12.7698 16.3443C12.0357 15.8307 11.144 15.5265 10.1822 15.5265C9.98288 15.5265 9.78893 15.5439 9.59624 15.5685C9.88085 14.0741 11.1933 12.9388 12.7698 12.9388C14.3451 12.9388 15.6569 14.0722 15.9428 15.566C15.7501 15.5401 15.5549 15.5265 15.3575 15.5265ZM10.1822 16.8203C10.7722 16.8203 11.3187 16.9912 11.7957 17.2679C11.4274 17.737 11.1519 18.2797 10.9915 18.8703C10.3038 18.4155 9.80251 17.7067 9.61741 16.8772C9.80188 16.845 9.98888 16.8203 10.1822 16.8203ZM12.1839 20.6598C12.3766 20.6844 12.5705 20.7018 12.7698 20.7018C12.9692 20.7018 13.1631 20.6844 13.3558 20.6598C13.2629 21.1475 13.0563 21.5919 12.7698 21.9757C12.484 21.5913 12.2768 21.1475 12.1839 20.6598ZM18.4104 20.5536C18.5014 20.0075 18.7563 19.5128 19.1483 19.1202C19.4364 18.8321 19.7927 18.6116 20.1803 18.4828L21.005 18.208L22.3803 19.5833L22.1055 20.4087C21.9766 20.7956 21.7562 21.1519 21.4675 21.4413C21.0761 21.8326 20.5808 22.0875 20.034 22.1788L18.0854 22.5035L18.4104 20.5536ZM23.2026 18.5753L22.0117 17.3851L22.5736 16.542L24.0456 18.014L23.2026 18.5753ZM1.77234 9.70429C1.77234 8.63442 2.64321 7.76355 3.71307 7.76355H29.3217L28.0279 9.05738H4.35999C3.64643 9.05738 3.06616 9.63764 3.06616 10.3512V31.0524H1.77234V9.70429ZM28.2957 38.8153H12.7698V36.2277H28.2957V38.8153ZM39.2932 33.64C39.2932 34.3536 38.713 34.9338 37.9994 34.9338H3.06616C2.3526 34.9338 1.77234 34.3536 1.77234 33.64V32.3462H39.2932V33.64ZM37.9994 31.0524V10.3512C37.9994 9.63764 37.4191 9.05738 36.7056 9.05738H35.0261L36.3212 7.76355H37.3525C38.4224 7.76355 39.2932 8.63442 39.2932 9.70429V31.0524H37.9994Z" fill="black"/>
<path d="M37.5926 6.49437L39.8612 4.22891C40.3296 3.76047 40.587 3.13946 40.587 2.47707C40.587 1.11186 39.4764 0.000610352 38.11 0.000610352C37.4488 0.000610352 36.8272 0.258048 36.3587 0.725859L30.6155 6.46973H3.71307C1.92964 6.46973 0.478516 7.92086 0.478516 9.70429V33.64C0.478516 35.0671 1.63904 36.2277 3.06616 36.2277H11.476V38.8153H8.88837V40.1091H32.1772V38.8153H29.5895V36.2277H37.9994C39.4265 36.2277 40.587 35.0671 40.587 33.64V9.70429C40.587 8.00299 39.2623 6.61914 37.5926 6.49437ZM37.2735 1.64063C37.4975 1.41731 37.7944 1.29443 38.11 1.29443C38.7629 1.29443 39.2932 1.82479 39.2932 2.47707C39.2932 2.78821 39.1672 3.09271 38.9464 3.31351L25.0612 17.1994L23.3883 15.5265L37.2735 1.64063ZM36.7056 31.0524H4.35999V10.3512H26.734L22.0161 15.0691L20.7697 16.9227L19.7715 17.255C19.5444 17.3308 19.3277 17.4328 19.118 17.5487C18.6568 16.8592 18.0222 16.3184 17.2884 15.9709C17.1804 13.5684 15.1983 11.645 12.7698 11.645C10.3433 11.645 8.36244 13.5649 8.25188 15.9643C6.71926 16.6908 5.65381 18.2493 5.65381 20.0549C5.65381 22.5512 7.6852 24.5833 10.1822 24.5833C11.144 24.5833 12.0357 24.2791 12.7698 23.7655C13.5039 24.2791 14.3956 24.5833 15.3575 24.5833C16.2309 24.5833 17.0736 24.3309 17.8033 23.8612L20.2463 23.4537C21.06 23.3185 21.7982 22.9382 22.3822 22.3548C22.8118 21.9245 23.1403 21.3932 23.3327 20.8177L23.6637 19.8233L25.4197 18.6524L33.731 10.3512H36.7056V31.0524ZM17.134 20.3407L16.6908 22.9988C16.2742 23.1887 15.8218 23.2894 15.3575 23.2894C14.7674 23.2894 14.221 23.1185 13.744 22.8418C14.3069 22.1239 14.6556 21.2334 14.7002 20.264C15.8834 19.703 16.7846 18.6467 17.1346 17.3624C17.5209 17.6173 17.8538 17.9524 18.1043 18.3561C17.5977 18.9149 17.2581 19.5937 17.134 20.3407ZM8.40382 17.3579C8.75317 18.6445 9.655 19.7024 10.8395 20.264C10.8841 21.2334 11.2328 22.1239 11.7957 22.8418C11.3187 23.1185 10.7722 23.2894 10.1822 23.2894C8.39876 23.2894 6.94763 21.8383 6.94763 20.0549C6.94763 18.9285 7.5279 17.9369 8.40382 17.3579ZM14.5482 18.8703C14.3878 18.2797 14.1123 17.737 13.744 17.2679C14.221 16.9912 14.7674 16.8203 15.3575 16.8203C15.5489 16.8203 15.7372 16.8437 15.9223 16.8765C15.7372 17.706 15.2359 18.4155 14.5482 18.8703ZM12.7698 18.134C13.0364 18.4919 13.2342 18.9013 13.3346 19.3511C13.1502 19.3833 12.9632 19.408 12.7698 19.408C12.5765 19.408 12.3895 19.3833 12.2051 19.3511C12.3055 18.9013 12.5032 18.4919 12.7698 18.134ZM15.3575 15.5265C14.3956 15.5265 13.5039 15.8307 12.7698 16.3443C12.0357 15.8307 11.144 15.5265 10.1822 15.5265C9.98288 15.5265 9.78893 15.5439 9.59624 15.5685C9.88085 14.0741 11.1933 12.9388 12.7698 12.9388C14.3451 12.9388 15.6569 14.0722 15.9428 15.566C15.7501 15.5401 15.5549 15.5265 15.3575 15.5265ZM10.1822 16.8203C10.7722 16.8203 11.3187 16.9912 11.7957 17.2679C11.4274 17.737 11.1519 18.2797 10.9915 18.8703C10.3038 18.4155 9.80251 17.7067 9.61741 16.8772C9.80188 16.845 9.98888 16.8203 10.1822 16.8203ZM12.1839 20.6598C12.3766 20.6844 12.5705 20.7018 12.7698 20.7018C12.9692 20.7018 13.1631 20.6844 13.3558 20.6598C13.2629 21.1475 13.0563 21.5919 12.7698 21.9757C12.484 21.5913 12.2768 21.1475 12.1839 20.6598ZM18.4104 20.5536C18.5014 20.0075 18.7563 19.5128 19.1483 19.1202C19.4364 18.8321 19.7927 18.6116 20.1803 18.4828L21.005 18.208L22.3803 19.5833L22.1055 20.4087C21.9766 20.7956 21.7562 21.1519 21.4675 21.4413C21.0761 21.8326 20.5808 22.0875 20.034 22.1788L18.0854 22.5035L18.4104 20.5536ZM23.2026 18.5753L22.0117 17.3851L22.5736 16.542L24.0456 18.014L23.2026 18.5753ZM1.77234 9.70429C1.77234 8.63442 2.64321 7.76355 3.71307 7.76355H29.3217L28.0279 9.05738H4.35999C3.64643 9.05738 3.06616 9.63764 3.06616 10.3512V31.0524H1.77234V9.70429ZM28.2957 38.8153H12.7698V36.2277H28.2957V38.8153ZM39.2932 33.64C39.2932 34.3536 38.713 34.9338 37.9994 34.9338H3.06616C2.3526 34.9338 1.77234 34.3536 1.77234 33.64V32.3462H39.2932V33.64ZM37.9994 31.0524V10.3512C37.9994 9.63764 37.4191 9.05738 36.7056 9.05738H35.0261L36.3212 7.76355H37.3525C38.4224 7.76355 39.2932 8.63442 39.2932 9.70429V31.0524H37.9994Z" fill="url(#paint0_linear_98_11726)"/>
<path d="M5.6543 28.4647H6.94812V29.7585H5.6543V28.4647Z" fill="black"/>
<path d="M5.6543 28.4647H6.94812V29.7585H5.6543V28.4647Z" fill="url(#paint1_linear_98_11726)"/>
<path d="M8.24121 28.4647H22.4733V29.7585H8.24121V28.4647Z" fill="black"/>
<path d="M8.24121 28.4647H22.4733V29.7585H8.24121V28.4647Z" fill="url(#paint2_linear_98_11726)"/>
<path d="M5.6543 25.8771H6.94812V27.1709H5.6543V25.8771Z" fill="black"/>
<path d="M5.6543 25.8771H6.94812V27.1709H5.6543V25.8771Z" fill="url(#paint3_linear_98_11726)"/>
<path d="M8.24121 25.8771H22.4733V27.1709H8.24121V25.8771Z" fill="black"/>
<path d="M8.24121 25.8771H22.4733V27.1709H8.24121V25.8771Z" fill="url(#paint4_linear_98_11726)"/>
<path d="M32.1773 28.4647C31.839 28.4647 31.5095 28.3715 31.199 28.1886L30.542 29.303C31.0471 29.6012 31.6125 29.7585 32.1773 29.7585C33.9607 29.7585 35.4118 28.3074 35.4118 26.524C35.4118 25.9592 35.2539 25.3931 34.9557 24.8881L33.841 25.5463C34.0248 25.8562 34.118 26.1857 34.118 26.524C34.118 27.5938 33.2471 28.4647 32.1773 28.4647Z" fill="black"/>
<path d="M32.1773 28.4647C31.839 28.4647 31.5095 28.3715 31.199 28.1886L30.542 29.303C31.0471 29.6012 31.6125 29.7585 32.1773 29.7585C33.9607 29.7585 35.4118 28.3074 35.4118 26.524C35.4118 25.9592 35.2539 25.3931 34.9557 24.8881L33.841 25.5463C34.0248 25.8562 34.118 26.1857 34.118 26.524C34.118 27.5938 33.2471 28.4647 32.1773 28.4647Z" fill="url(#paint5_linear_98_11726)"/>
<path d="M32.1768 24.5833C32.5151 24.5833 32.8445 24.6764 33.1551 24.8593L33.8121 23.7449C33.307 23.4467 32.7416 23.2894 32.1768 23.2894C30.3934 23.2894 28.9422 24.7406 28.9422 26.524C28.9422 27.5939 28.0714 28.4647 27.0015 28.4647C26.6632 28.4647 26.3337 28.3715 26.0232 28.1886L25.3662 29.3031C25.8713 29.6012 26.4367 29.7585 27.0015 29.7585C28.7849 29.7585 30.2361 28.3074 30.2361 26.524C30.2361 25.4541 31.1069 24.5833 32.1768 24.5833Z" fill="black"/>
<path d="M32.1768 24.5833C32.5151 24.5833 32.8445 24.6764 33.1551 24.8593L33.8121 23.7449C33.307 23.4467 32.7416 23.2894 32.1768 23.2894C30.3934 23.2894 28.9422 24.7406 28.9422 26.524C28.9422 27.5939 28.0714 28.4647 27.0015 28.4647C26.6632 28.4647 26.3337 28.3715 26.0232 28.1886L25.3662 29.3031C25.8713 29.6012 26.4367 29.7585 27.0015 29.7585C28.7849 29.7585 30.2361 28.3074 30.2361 26.524C30.2361 25.4541 31.1069 24.5833 32.1768 24.5833Z" fill="url(#paint6_linear_98_11726)"/>
<path d="M27.0012 24.5833C27.3395 24.5833 27.6689 24.6764 27.9794 24.8593L28.6364 23.7449C28.1314 23.4467 27.5659 23.2894 27.0012 23.2894C25.2177 23.2894 23.7666 24.7406 23.7666 26.524C23.7666 27.0888 23.9245 27.6548 24.2227 28.1599L25.3374 27.5016C25.1536 27.1917 25.0604 26.8623 25.0604 26.524C25.0604 25.4541 25.9313 24.5833 27.0012 24.5833Z" fill="black"/>
<path d="M27.0012 24.5833C27.3395 24.5833 27.6689 24.6764 27.9794 24.8593L28.6364 23.7449C28.1314 23.4467 27.5659 23.2894 27.0012 23.2894C25.2177 23.2894 23.7666 24.7406 23.7666 26.524C23.7666 27.0888 23.9245 27.6548 24.2227 28.1599L25.3374 27.5016C25.1536 27.1917 25.0604 26.8623 25.0604 26.524C25.0604 25.4541 25.9313 24.5833 27.0012 24.5833Z" fill="url(#paint7_linear_98_11726)"/>
<defs>
<linearGradient id="paint0_linear_98_11726" x1="34.9199" y1="-9.12665" x2="-4.62748" y2="62.1002" gradientUnits="userSpaceOnUse">
<stop stop-color="#FF003D"/>
<stop offset="0.65" stop-color="#FF00D6"/>
</linearGradient>
<linearGradient id="paint1_linear_98_11726" x1="6.76531" y1="28.1703" x2="5.48959" y2="30.4679" gradientUnits="userSpaceOnUse">
<stop stop-color="#FF003D"/>
<stop offset="0.65" stop-color="#FF00D6"/>
</linearGradient>
<linearGradient id="paint2_linear_98_11726" x1="20.4623" y1="28.1703" x2="20.311" y2="31.1686" gradientUnits="userSpaceOnUse">
<stop stop-color="#FF003D"/>
<stop offset="0.65" stop-color="#FF00D6"/>
</linearGradient>
<linearGradient id="paint3_linear_98_11726" x1="6.76531" y1="25.5826" x2="5.48959" y2="27.8803" gradientUnits="userSpaceOnUse">
<stop stop-color="#FF003D"/>
<stop offset="0.65" stop-color="#FF00D6"/>
</linearGradient>
<linearGradient id="paint4_linear_98_11726" x1="20.4623" y1="25.5826" x2="20.311" y2="28.581" gradientUnits="userSpaceOnUse">
<stop stop-color="#FF003D"/>
<stop offset="0.65" stop-color="#FF00D6"/>
</linearGradient>
<linearGradient id="paint5_linear_98_11726" x1="34.7237" y1="23.7797" x2="29.9211" y2="32.4284" gradientUnits="userSpaceOnUse">
<stop stop-color="#FF003D"/>
<stop offset="0.65" stop-color="#FF00D6"/>
</linearGradient>
<linearGradient id="paint6_linear_98_11726" x1="32.6187" y1="21.8173" x2="27.2058" y2="34.5451" gradientUnits="userSpaceOnUse">
<stop stop-color="#FF003D"/>
<stop offset="0.65" stop-color="#FF00D6"/>
</linearGradient>
<linearGradient id="paint7_linear_98_11726" x1="27.9484" y1="22.1811" x2="23.1457" y2="30.8298" gradientUnits="userSpaceOnUse">
<stop stop-color="#FF003D"/>
<stop offset="0.65" stop-color="#FF00D6"/>
</linearGradient>
</defs>
</svg>
